# xmcd CD database file
#
# Track frame offsets:
#	150
#	9877
#	19805
#	31917
#	49135
#	63692
#	76295
#	87717
#	99770
#	113457
#	123397
#	136212
#	147797
#	158130
#	171897
#	185422
#
# Disc length: 2633 seconds
#
# Revision: 1
# Processed by: cddbd v1.4PL0 Copyright (c) Steve Scherf et al.
# Submitted via: CDex 1.50Beta7
#
DISCID=c60a4710
DTITLE=John Lee Hooker - Electric
DYEAR=1986
DGENRE=Blues
TTITLE0=Onions
TTITLE1=Dusty Road
TTITLE2=I'm in the Mood
TTITLE3=Blues Before Sunrise
TTITLE4=Baby, Please Don't Go
TTITLE5=Hobo Blues
TTITLE6=Boom Boom
TTITLE7=Whiskey and Wimmin
TTITLE8=Time is Marchin'
TTITLE9=Dimples
TTITLE10=I'm So Excited
TTITLE11=Boogie Chillun
TTITLE12=Maudie (1960)
TTITLE13=I'm Gonna Kill That Woman
TTITLE14=Slim's Stomp
TTITLE15=Crawlin' King Snake
EXTD=YEAR: 1986
EXTT0=
EXTT1=
EXTT2=
EXTT3=
EXTT4=
EXTT5=
EXTT6=
EXTT7=
EXTT8=
EXTT9=
EXTT10=
EXTT11=
EXTT12=
EXTT13=
EXTT14=
EXTT15=
PLAYORDER=
